<svg width="400" height="83" viewBox="0 0 400 83" fill="none" xmlns="http://www.w3.org/2000/svg">
<path d="M80.823 36.5846V24.6975H87.3229C91.9489 24.6975 93.9984 26.9226 93.9984 30.6703C93.9984 34.3009 91.9489 36.5846 87.3229 36.5846H80.823ZM102.431 30.6703C102.431 23.5849 97.5119 18.0219 87.6743 18.0219H72.625V58.895H80.823V43.2016H87.6743C98.2146 43.2016 102.431 36.8774 102.431 30.6703Z" fill="#171F46"/>
<path d="M121.317 32.6613C125.534 32.6613 128.93 35.3549 129.047 39.6296H113.646C114.291 35.1792 117.394 32.6613 121.317 32.6613ZM136.718 48.706H127.876C126.822 50.8726 124.889 52.6294 121.376 52.6294C117.277 52.6294 113.998 49.9357 113.588 45.134H137.304C137.479 44.08 137.538 43.0259 137.538 41.9719C137.538 32.3099 130.921 25.9272 121.552 25.9272C111.948 25.9272 105.273 32.427 105.273 42.6746C105.273 52.8636 112.124 59.422 121.552 59.422C129.574 59.422 134.961 54.6789 136.718 48.706Z" fill="#171F46"/>
<path d="M173.979 42.6746C173.979 32.427 166.66 25.9272 157.291 25.9272C147.921 25.9272 140.602 32.427 140.602 42.6746C140.602 52.8636 147.687 59.422 157.056 59.422C166.484 59.422 173.979 52.8636 173.979 42.6746ZM148.917 42.6746C148.917 36.1747 152.84 33.0712 157.173 33.0712C161.507 33.0712 165.547 36.1747 165.547 42.6746C165.547 49.1159 161.39 52.278 157.056 52.278C152.665 52.278 148.917 49.1159 148.917 42.6746Z" fill="#171F46"/>
<path d="M187.321 31.1388V26.4542H179.123V74.3542H187.321V54.269C189.312 56.904 192.942 59.422 198.037 59.422C206.352 59.422 212.852 52.6879 212.852 42.5575C212.852 32.427 206.352 25.9272 198.037 25.9272C193.001 25.9272 189.253 28.3866 187.321 31.1388ZM204.478 42.5575C204.478 48.706 200.32 52.2195 195.87 52.2195C191.478 52.2195 187.321 48.8231 187.321 42.6746C187.321 36.5261 191.478 33.1297 195.87 33.1297C200.32 33.1297 204.478 36.4089 204.478 42.5575Z" fill="#171F46"/>
<path d="M217.938 58.895H226.137V15.5625H217.938V58.895Z" fill="#171F46"/>
<path d="M247.302 32.6613C251.519 32.6613 254.915 35.3549 255.032 39.6296H239.631C240.276 35.1792 243.379 32.6613 247.302 32.6613ZM262.703 48.706H253.861C252.807 50.8726 250.874 52.6294 247.361 52.6294C243.262 52.6294 239.983 49.9357 239.573 45.134H263.289C263.464 44.08 263.523 43.0259 263.523 41.9719C263.523 32.3099 256.906 25.9272 247.537 25.9272C237.933 25.9272 231.258 32.427 231.258 42.6746C231.258 52.8636 238.109 59.422 247.537 59.422C255.559 59.422 260.946 54.6789 262.703 48.706Z" fill="#171F46"/>
<path d="M274.719 18.0219V58.895H296.385V52.3951H282.917V18.0219H274.719Z" fill="#171F46"/>
<path d="M314.662 32.6613C318.878 32.6613 322.274 35.3549 322.392 39.6296H306.991C307.635 35.1792 310.739 32.6613 314.662 32.6613ZM330.063 48.706H321.22C320.166 50.8726 318.234 52.6294 314.721 52.6294C310.622 52.6294 307.342 49.9357 306.932 45.134H330.648C330.824 44.08 330.882 43.0259 330.882 41.9719C330.882 32.3099 324.265 25.9272 314.896 25.9272C305.293 25.9272 298.617 32.427 298.617 42.6746C298.617 52.8636 305.469 59.422 314.896 59.422C322.919 59.422 328.306 54.6789 330.063 48.706Z" fill="#171F46"/>
<path d="M358.716 58.895H366.914V39.8638C366.914 30.9045 361.527 25.9857 353.973 25.9857C349.815 25.9857 346.302 27.7424 344.194 30.4946V26.4542H335.996V58.895H344.194V40.9764C344.194 35.7648 347.063 32.9541 351.514 32.9541C355.847 32.9541 358.716 35.7648 358.716 40.9764V58.895Z" fill="#171F46"/>
<path d="M399.019 49.6429C398.785 37.7558 380.808 41.4449 380.808 35.5306C380.808 33.6567 382.389 32.427 385.434 32.427C388.655 32.427 390.646 34.1252 390.88 36.6432H398.726C398.258 30.2019 393.515 25.9272 385.668 25.9272C377.646 25.9272 372.844 30.2604 372.844 35.6477C372.844 47.5349 391.173 43.8457 391.173 49.6429C391.173 51.5168 389.416 52.9807 386.195 52.9807C382.916 52.9807 380.632 51.1069 380.339 48.6474H372.083C372.434 54.6789 378.114 59.422 386.254 59.422C394.159 59.422 399.019 55.2059 399.019 49.6429Z" fill="#171F46"/>
<rect width="19.0097" height="83" rx="9.50483" fill="#366FF5"/>
<circle cx="24.0298" cy="29.7159" r="22.825" fill="#366FF5"/>
<circle cx="23.7622" cy="29.6523" r="16.6669" fill="white"/>
<circle cx="23.695" cy="29.5855" r="12.7177" fill="#FFD912"/>
<rect width="5.28043" height="14.6594" rx="2.64021" transform="matrix(-0.866025 -0.5 -0.5 0.866025 19.356 43.8379)" fill="white"/>
<rect width="5.28043" height="14.6594" rx="2.64021" transform="matrix(-0.866025 -0.5 -0.5 0.866025 19.356 43.8379)" stroke="white"/>
</svg>